<?xml version="1.0" standalone="no"?><!DOCTYPE svg PUBLIC "-//W3C//DTD SVG 1.1//EN" "http://www.w3.org/Graphics/SVG/1.1/DTD/svg11.dtd"><svg class="icon" width="200px" height="200.00px" viewBox="0 0 1024 1024" version="1.1" xmlns="http://www.w3.org/2000/svg"><path fill="#333333" d="M513.935072 8.484232c-278.301424 0-504.703827 226.40138-504.703827 504.671081 0 278.301424 226.40138 504.703827 504.703827 504.703827s504.703827-226.40138 504.703827-504.703827C1018.638899 234.885612 792.236496 8.484232 513.935072 8.484232L513.935072 8.484232zM513.935072 964.643124c-248.963235 0-451.493951-202.523553-451.493951-451.486788 0-248.931512 202.530716-451.460182 451.493951-451.460182s451.491904 202.529693 451.491904 451.460182C965.426977 762.118548 762.898307 964.643124 513.935072 964.643124L513.935072 964.643124zM704.295608 476.860688 549.872562 476.860688 549.872562 322.794777c0-14.686491-20.791535-26.605961-35.478026-26.605961s-35.471886 11.920494-35.471886 26.605961l0 154.065911L323.573513 476.860688c-14.686491 0-26.604938 20.791535-26.604938 35.478026 0 14.686491 11.918447 35.471886 26.604938 35.471886l155.349137 0 0 155.737994c0 14.686491 20.786419 26.604938 35.471886 26.604938s35.478026-11.918447 35.478026-26.604938L549.872562 547.8106l154.423045 0c14.686491 0 26.604938-20.786419 26.604938-35.471886C730.901569 497.652224 719.013821 476.860688 704.295608 476.860688L704.295608 476.860688zM704.295608 476.860688" /></svg>