<svg xmlns="http://www.w3.org/2000/svg" viewBox="0 0 1024 1024" enable-background="new 0 0 1024 1024"><path d="M512.1 66.2c-246.6 0-447.2 200.6-447.2 447.2s200.6 447.2 447.2 447.2 447.2-200.6 447.2-447.2-200.6-447.2-447.2-447.2zm0 864.6c-230.5 0-417.4-186.9-417.4-417.4s186.9-417.3 417.4-417.3 417.4 186.9 417.4 417.4-186.9 417.3-417.4 417.3zm20.6-418.5v-.5c0-8.6-6.6-15.6-14.8-15.6h-148.3c-8.2 0-14.8 6.9-14.8 15.6v.5c0 8.6 6.6 15.6 14.8 15.6h148.3c8.2 0 14.8-7 14.8-15.6z"/><circle cx="407.7" cy="718.2" r="31.7"/><circle cx="608.5" cy="718.2" r="31.7"/><path d="M615.3 351.9h-242.3l-9.7-45c-1.2-8.7-8.8-14.7-16.9-13.3-8.1 1.4-13.6 9.6-12.3 18.3l10.5 63.8c1.2 8.7 8.2 11.4 16.9 11.4h254c43.4 0 68.2 36.2 60.9 80.4l-18.6 102.4c-3.6 25.3-28.4 39.9-56.4 39.9h-209.5c-8.1 0-14.8 9-14.8 17.8s5.5 16.5 13.7 16.5h210.5c41 0 79.5-25.8 85.6-69.1l18.5-101.9c10.4-62.9-27.4-121.2-90.1-121.2z"/></svg>