<?xml version="1.0" standalone="no"?><!DOCTYPE svg PUBLIC "-//W3C//DTD SVG 1.1//EN" "http://www.w3.org/Graphics/SVG/1.1/DTD/svg11.dtd"><svg t="1558349896087" class="icon" style="" viewBox="0 0 1024 1024" version="1.1" xmlns="http://www.w3.org/2000/svg" p-id="713" xmlns:xlink="http://www.w3.org/1999/xlink" width="200" height="200"><defs><style type="text/css"></style></defs><path d="M542.72 706.56c0 17.408-13.312 30.72-30.72 30.72s-30.72-13.312-30.72-30.72 13.312-30.72 30.72-30.72 30.72 13.312 30.72 30.72z m-30.72-419.84c-17.408 0-30.72 13.312-30.72 30.72v296.96c0 16.384 13.312 30.72 30.72 30.72s30.72-13.312 30.72-30.72V317.44c0-16.384-13.312-30.72-30.72-30.72z m460.8 225.28c0 253.952-206.848 460.8-460.8 460.8S51.2 765.952 51.2 512 258.048 51.2 512 51.2s460.8 206.848 460.8 460.8z m-40.96 0C931.84 280.576 743.424 92.16 512 92.16S92.16 280.576 92.16 512s188.416 419.84 419.84 419.84 419.84-188.416 419.84-419.84z" p-id="714"></path></svg>