<svg class="icon" viewBox="0 0 1024 1024" xmlns="http://www.w3.org/2000/svg" width="200" height="200"><defs><style type="text/css">@font-face { font-family: rbicon; src: url(&quot;chrome-extension://dipiagiiohfljcicegpgffpbnjmgjcnf/fonts/rbicon.woff2&quot;) format(&quot;woff2&quot;); font-weight: normal; font-style: normal; }</style></defs><path d="M417.72 176.8l-2.021 66.021h-266.107v50.524h269.476v87.579h-222.317v47.834l225.683-2.024 226.359-2.021-4.041 16.169c-10.107 39.076-53.224 143.497-61.307 146.862-4.717 1.348-37.728-6.062-74.779-16.845-112.507-34.355-168.424-44.462-244.548-44.462-77.476.672-128 14.824-176.507 49.179-94.314 67.369-101.724 199.414-14.145 272.845 92.966 78.148 245.221 85.555 383.324 18.19 49.179-23.579 137.431-87.579 167.072-120.59l12.128-14.152 38.4 18.865c38.4 19.535 275.538 129.348 315.959 146.19l21.555 9.431v-173.138l-58.61-15.493c-53.221-14.152-189.307-56.59-233.097-73.438l-16.845-6.735 22.234-45.81c23.579-47.155 70.738-180.548 70.738-200.086 0-9.431-13.476-10.779-117.897-10.779h-117.893v-87.572h282.952v-44.462c0-2.021-64-3.369-141.476-2.693l-141.472.672v-135.41h-140.8l-2.017 65.348zm-26.276 439.238c35.034 12.131 81.517 30.993 103.076 42.445l39.072 20.886-21.559 26.945c-12.124 14.821-39.745 40.421-62.652 57.265-76.8 57.259-148.21 79.493-239.831 74.103-95.662-5.39-146.862-44.462-152.928-117.221-4.041-45.138 6.065-70.738 37.055-94.317 39.072-29.645 70.735-36.376 156.966-34.355 66.024 2.021 86.907 6.062 140.8 24.248z"/></svg>