<svg xmlns="http://www.w3.org/2000/svg" viewBox="0 0 218 218"><defs><style>.cls-1{fill:#ff777d;}</style></defs><title>icon_baby</title><g id="icon"><path class="cls-1" d="M109.85,168.69c-5.89,0-11.46-1.87-14.9-5a2.68,2.68,0,0,1,3.6-4c2.48,2.25,6.7,3.59,11.3,3.59s8.81-1.34,11.29-3.59a2.68,2.68,0,1,1,3.61,4C121.31,166.82,115.74,168.69,109.85,168.69Z"/><path class="cls-1" d="M109.34,186.07a54.64,54.64,0,0,1-50.7-34.83,2.68,2.68,0,1,1,5-1.92,48.94,48.94,0,0,0,91.39,0,2.68,2.68,0,0,1,5,1.92A54.63,54.63,0,0,1,109.34,186.07Z"/><path class="cls-1" d="M55.43,121.44a2.68,2.68,0,0,1-2.68-2.66v-.15c0-.12,0-.24,0-.36a57.11,57.11,0,0,1,114.22,0,1,1,0,0,1,0,.18,2.68,2.68,0,1,1-5.36,0v-.17a51.75,51.75,0,0,0-103.49,0v.47a2.68,2.68,0,0,1-2.66,2.7Z"/><path class="cls-1" d="M61.14,153H61c-16.74-.68-22.82-13.43-22.82-21.84,0-9.11,5.72-15.48,13.92-15.48a15.65,15.65,0,0,1,4,.53,2.68,2.68,0,0,1-1.39,5.18,10.18,10.18,0,0,0-2.61-.35c-5.91,0-8.55,5.08-8.55,10.12,0,4.39,3.17,15.89,17.67,16.48a2.68,2.68,0,0,1-.11,5.36Z"/><path class="cls-1" d="M157.54,152.92a2.68,2.68,0,0,1-.17-5.36c13.49-.85,17-11.13,17-16.44,0-5-2.64-10.12-8.55-10.12a10.93,10.93,0,0,0-1.26.08,2.68,2.68,0,1,1-.68-5.32,16,16,0,0,1,1.94-.12c8.2,0,13.92,6.37,13.92,15.48,0,8.2-5.88,20.77-22.08,21.8Z"/><path class="cls-1" d="M134.6,142.46a4,4,0,0,1-4-4V133a4,4,0,0,1,8,0v5.43A4,4,0,0,1,134.6,142.46Z"/><path class="cls-1" d="M84.08,142.46a4,4,0,0,1-4-4V133a4,4,0,0,1,8,0v5.43A4,4,0,0,1,84.08,142.46Z"/><path class="cls-1" d="M106.78,59.86A12.72,12.72,0,0,1,94.07,47.15c0-.48,0-1,.07-1.49a2.68,2.68,0,1,1,5.34.52c0,.32,0,.64,0,1a7.35,7.35,0,0,0,7.35,7.34c3,0,4.57-1.62,4.57-4.57a3.74,3.74,0,0,0-3.73-3.74,2.68,2.68,0,0,1,0-5.36,9.11,9.11,0,0,1,9.1,9.1C116.72,55.86,112.72,59.86,106.78,59.86Z"/><path class="cls-1" d="M104.53,78.5a2.69,2.69,0,1,1,0-5.37c7.13,0,17.74-6.08,17.74-22.85,0-9.57-6.71-13-13-13a9.81,9.81,0,0,0-9.81,8.89,2.68,2.68,0,1,1-5.34-.52,15.15,15.15,0,0,1,15.15-13.73c11,0,18.35,7.37,18.35,18.35C127.64,71,113.82,78.5,104.53,78.5Z"/></g></svg>