<svg xmlns="http://www.w3.org/2000/svg" viewBox="0 0 132 132"><defs><style>.cls-1{fill:#f2f2f2;}.cls-2{fill:#dbdbdb;}</style></defs><title>icon_baby_default</title><g id="bg"><circle class="cls-1" cx="66" cy="66" r="64"/><path class="cls-2" d="M66,4A62,62,0,1,1,4,66,62.07,62.07,0,0,1,66,4m0-4a66,66,0,1,0,66,66A66,66,0,0,0,66,0Z"/></g><g id="icon"><path class="cls-2" d="M66.48,95.92a12.76,12.76,0,0,1-8.4-2.81,1.51,1.51,0,0,1,2-2.24,9.67,9.67,0,0,0,6.36,2,9.68,9.68,0,0,0,6.36-2,1.51,1.51,0,0,1,2,2.24A12.73,12.73,0,0,1,66.48,95.92Z"/><path class="cls-2" d="M66.19,105.71A30.77,30.77,0,0,1,37.63,86.09,1.51,1.51,0,0,1,40.45,85a27.58,27.58,0,0,0,51.49,0,1.51,1.51,0,0,1,2.82,1.08A30.78,30.78,0,0,1,66.19,105.71Z"/><path class="cls-2" d="M35.82,69.31a1.51,1.51,0,0,1-1.51-1.5v-.09c0-.07,0-.13,0-.2a32.18,32.18,0,0,1,64.35,0v.1a1.51,1.51,0,0,1-3,0v-.1a29.15,29.15,0,0,0-58.3,0v.27a1.51,1.51,0,0,1-1.5,1.52Z"/><path class="cls-2" d="M39,87.06H39c-9.43-.38-12.86-7.57-12.86-12.3C26.12,69.62,29.35,66,34,66a8.64,8.64,0,0,1,2.25.3,1.5,1.5,0,0,1,1.07,1.85,1.52,1.52,0,0,1-1.85,1.07,5.31,5.31,0,0,0-1.47-.2c-3.33,0-4.82,2.86-4.82,5.7,0,2.47,1.79,8.95,10,9.28a1.51,1.51,0,0,1-.06,3Z"/><path class="cls-2" d="M93.35,87a1.51,1.51,0,0,1-.1-3c7.6-.48,9.61-6.27,9.61-9.26s-1.49-5.7-4.82-5.7a5.74,5.74,0,0,0-.71,0,1.51,1.51,0,1,1-.38-3A8,8,0,0,1,98,66c4.61,0,7.84,3.58,7.84,8.72,0,4.62-3.31,11.7-12.44,12.28Z"/><path class="cls-2" d="M80.42,81.15a2.27,2.27,0,0,1-2.26-2.27V75.82a2.27,2.27,0,0,1,4.53,0v3.06A2.27,2.27,0,0,1,80.42,81.15Z"/><path class="cls-2" d="M52,81.15a2.27,2.27,0,0,1-2.26-2.27V75.82a2.27,2.27,0,0,1,4.53,0v3.06A2.27,2.27,0,0,1,52,81.15Z"/><path class="cls-2" d="M64.75,34.61a7.17,7.17,0,0,1-7.16-7.16,7.94,7.94,0,0,1,0-.83,1.51,1.51,0,1,1,3,.29,4.89,4.89,0,0,0,0,.54,4.15,4.15,0,0,0,4.14,4.14A2.33,2.33,0,0,0,67.33,29a2.11,2.11,0,0,0-2.11-2.1,1.51,1.51,0,1,1,0-3A5.13,5.13,0,0,1,70.35,29,5.3,5.3,0,0,1,64.75,34.61Z"/><path class="cls-2" d="M63.48,45.11a1.51,1.51,0,0,1,0-3c4,0,10-3.43,10-12.87,0-5.4-3.78-7.32-7.32-7.32a5.52,5.52,0,0,0-5.52,5,1.51,1.51,0,0,1-3-.29,8.54,8.54,0,0,1,8.53-7.74c6.18,0,10.34,4.15,10.34,10.34C76.5,40.88,68.71,45.11,63.48,45.11Z"/></g></svg>