<svg xmlns="http://www.w3.org/2000/svg" viewBox="0 0 132 132"><defs><style>.cls-1{fill:#ffeae9;}.cls-2{fill:#ff777d;}</style></defs><title>icon_boy_active</title><g id="bg"><circle class="cls-1" cx="66" cy="66" r="64"/><path class="cls-2" d="M66,4A62,62,0,1,1,4,66,62.07,62.07,0,0,1,66,4m0-4a66,66,0,1,0,66,66A66,66,0,0,0,66,0Z"/></g><g id="icon"><path class="cls-2" d="M42.77,68.49A30.13,30.13,0,0,1,34,66.88l-.73-.21a1.51,1.51,0,0,1-1-1.88,1.52,1.52,0,0,1,1.88-1l.73.21a27.76,27.76,0,0,0,8,1.49A31.46,31.46,0,0,0,67.93,53.37a1.52,1.52,0,0,1,2.43,1.84A34.53,34.53,0,0,1,42.77,68.49Z"/><path class="cls-2" d="M94,66.65A34.69,34.69,0,0,1,68,55.3a1.52,1.52,0,0,1,2.28-2A31.6,31.6,0,0,0,94,63.61l.92,0h.16a1.52,1.52,0,0,1,.1,3H95Z"/><path class="cls-2" d="M64.48,93.51A12.84,12.84,0,0,1,56,90.68a1.52,1.52,0,0,1,2-2.25,9.73,9.73,0,0,0,6.4,2,9.73,9.73,0,0,0,6.4-2,1.52,1.52,0,0,1,2.05,2.25A12.84,12.84,0,0,1,64.48,93.51Z"/><path class="cls-2" d="M64.19,103.36A31,31,0,0,1,35.45,83.62a1.52,1.52,0,0,1,2.84-1.09,27.75,27.75,0,0,0,51.81,0,1.52,1.52,0,1,1,2.83,1.09A31,31,0,0,1,64.19,103.36Z"/><path class="cls-2" d="M33.64,66.73a1.51,1.51,0,0,1-1.52-1.5v-.29a32.37,32.37,0,1,1,64.74,0V65a1.52,1.52,0,1,1-3,0v-.1a29.33,29.33,0,0,0-58.66,0v.26a1.53,1.53,0,0,1-1.51,1.53Z"/><path class="cls-2" d="M36.87,84.6h-.06C27.32,84.21,23.88,77,23.88,72.22c0-5.17,3.24-8.78,7.88-8.78a8.79,8.79,0,0,1,2.27.3,1.52,1.52,0,0,1-.79,2.94,5.79,5.79,0,0,0-1.48-.2c-3.34,0-4.84,2.88-4.84,5.74,0,2.48,1.8,9,10,9.34a1.52,1.52,0,0,1-.06,3Z"/><path class="cls-2" d="M91.51,84.57a1.52,1.52,0,0,1-.09-3c7.64-.49,9.66-6.31,9.66-9.32,0-2.86-1.5-5.74-4.84-5.74a5.81,5.81,0,0,0-.72,0,1.52,1.52,0,0,1-.38-3,10.32,10.32,0,0,1,1.1-.07c4.64,0,7.88,3.61,7.88,8.78,0,4.64-3.33,11.77-12.51,12.35Z"/><path class="cls-2" d="M67.68,35.63h-.13a1.53,1.53,0,0,1-1.36-1.19c0-.07-1.54-6.75-5.67-6.75a1.52,1.52,0,0,1,0-3c4,0,6.31,3.26,7.52,5.89a7,7,0,0,1,5.42-3.05,1.52,1.52,0,1,1,0,3c-2.63,0-4.35,4.11-4.37,4.15A1.53,1.53,0,0,1,67.68,35.63Z"/><path class="cls-2" d="M78.51,78.65a2.28,2.28,0,0,1-2.28-2.28V73.29a2.28,2.28,0,0,1,4.56,0v3.08A2.28,2.28,0,0,1,78.51,78.65Z"/><path class="cls-2" d="M49.88,78.65a2.28,2.28,0,0,1-2.28-2.28V73.29a2.28,2.28,0,1,1,4.56,0v3.08A2.29,2.29,0,0,1,49.88,78.65Z"/></g></svg>