<?xml version="1.0" standalone="no"?><!DOCTYPE svg PUBLIC "-//W3C//DTD SVG 1.1//EN" "http://www.w3.org/Graphics/SVG/1.1/DTD/svg11.dtd"><svg t="1567577304858" class="icon" viewBox="0 0 1024 1024" version="1.1" xmlns="http://www.w3.org/2000/svg" p-id="1205" xmlns:xlink="http://www.w3.org/1999/xlink" width="200" height="200"><defs><style type="text/css"></style></defs><path d="M841.955556 344.177778c-2.844444 0-2.844444 2.844444 0 0L517.688889 668.444444c-11.377778 11.377778-28.444444 11.377778-39.822222 0l-201.955556-201.955555c-11.377778-11.377778-11.377778-28.444444 0-39.822222 11.377778-11.377778 28.444444-11.377778 39.822222 0l182.044445 182.044444 301.511111-301.511111c2.844444-2.844444 8.533333-5.688889 14.222222-8.533333C748.088889 204.8 637.155556 142.222222 512 142.222222 307.2 142.222222 142.222222 307.2 142.222222 512s164.977778 369.777778 369.777778 369.777778 369.777778-164.977778 369.777778-369.777778c0-59.733333-14.222222-116.622222-39.822222-167.822222z" p-id="1206"></path></svg>