<?xml version="1.0" standalone="no"?><!DOCTYPE svg PUBLIC "-//W3C//DTD SVG 1.1//EN" "http://www.w3.org/Graphics/SVG/1.1/DTD/svg11.dtd"><svg t="1568010069096" class="icon" viewBox="0 0 1024 1024" version="1.1" xmlns="http://www.w3.org/2000/svg" p-id="927" xmlns:xlink="http://www.w3.org/1999/xlink" width="200" height="200"><defs><style type="text/css"></style></defs><path d="M912.44383922 308.32597887c-3.45210151 0-3.45210151 3.45210151 0 0L518.90420426 701.86561263c-13.8084085 13.8084085-34.52102004 13.8084085-48.32942855 0l-245.09924663-245.09924542c-13.8084085-13.8084085-13.8084085-34.52102004 0-48.32942853 13.8084085-13.8084085 34.52102004-13.8084085 48.32942854 0l220.93453236 220.93453114 365.92281798-365.92281797c3.45210151-3.45210151 10.35630577-6.90420426 17.26051001-10.35630577C798.52447092 139.17297778 663.89249107 63.22673223 512 63.22673223 263.44865185 63.22673223 63.22673223 263.44865185 63.22673223 512s200.22191961 448.77326777 448.77326777 448.77326777 448.77326777-200.22191961 448.77326777-448.77326777c0-72.49414281-17.26051002-141.5361841-48.32942855-203.67402113z" p-id="928"></path></svg>