<?xml version="1.0" encoding="utf-8"?>
<!-- Generator: Adobe Illustrator 21.0.0, SVG Export Plug-In . SVG Version: 6.00 Build 0)  -->
<svg version="1.1" id="图层_1" xmlns="http://www.w3.org/2000/svg" xmlns:xlink="http://www.w3.org/1999/xlink" x="0px" y="0px"
	 viewBox="0 0 1024 1024" style="enable-background:new 0 0 1024 1024;" xml:space="preserve">
<style type="text/css">
	.st0{fill:#666666;}
</style>
<path class="st0" d="M785.7,784.9c-16.7,16.7-43.7,16.7-60.3,0c-70.5-70.5-141-141-211.6-211.5c-70.5,70.5-141,141-211.5,211.5
	c-16.7,16.7-43.7,16.7-60.3,0c-16.7-16.6-16.7-43.7,0-60.3c70.5-70.5,141-141,211.5-211.5c-70.5-70.5-141-141-211.5-211.6
	c-16.7-16.6-16.7-43.7,0-60.3c16.7-16.7,43.7-16.7,60.3,0c161.2,161.2,322.3,322.3,483.4,483.4C802.4,741.2,802.4,768.2,785.7,784.9
	z"/>
<path class="st0" d="M725.4,241.1c16.7-16.7,43.7-16.7,60.3,0c16.7,16.7,16.7,43.7,0,60.3c-37.9,37.9-75.8,75.8-113.7,113.7
	c-16.7,16.7-43.7,16.7-60.3,0c-16.7-16.6-16.7-43.7,0-60.3C649.6,316.9,687.5,279,725.4,241.1z"/>
</svg>
