<?xml version="1.0" standalone="no"?><!DOCTYPE svg PUBLIC "-//W3C//DTD SVG 1.1//EN" "http://www.w3.org/Graphics/SVG/1.1/DTD/svg11.dtd"><svg t="1567495234007" class="icon" viewBox="0 0 1024 1024" version="1.1" xmlns="http://www.w3.org/2000/svg" p-id="6196" xmlns:xlink="http://www.w3.org/1999/xlink" width="200" height="200"><defs><style type="text/css"></style></defs><path d="M512 10.180608C235.034624 10.180608 10.508288 235.266048 10.508288 512.9216S235.034624 1015.66464 512 1015.66464s501.491712-225.08544 501.491712-502.74304S788.965376 10.180608 512 10.180608z m263.69024 359.264256L442.761216 736.657408a40.96 40.96 0 0 1-59.342848 1.417216l-158.398464-158.79168c-15.976448-16.01536-15.94368-41.951232 0.07168-57.92768 16.01536-15.970304 41.949184-15.94368 57.925632 0.07168l127.981568 128.301056 304.003072-335.306752c15.19616-16.758784 41.099264-18.026496 57.856-2.832384 16.758784 15.194112 18.028544 41.097216 2.832384 57.856z" fill="#2E333A" p-id="6197"></path></svg>