<svg xmlns="http://www.w3.org/2000/svg" viewBox="0 0 132 132"><defs><style>.cls-1{fill:#ffeae9;}.cls-2{fill:#ff777d;}</style></defs><title>icon_dad_active</title><g id="bg"><circle class="cls-1" cx="66" cy="66" r="64"/><path class="cls-2" d="M66,4A62,62,0,1,1,4,66,62.07,62.07,0,0,1,66,4m0-4a66,66,0,1,0,66,66A66,66,0,0,0,66,0Z"/></g><g id="icon"><path class="cls-2" d="M83,80.31a2.63,2.63,0,0,1-2.62-2.62V74.15a2.63,2.63,0,0,1,5.25,0v3.54A2.63,2.63,0,0,1,83,80.31Z"/><path class="cls-2" d="M50.09,80.31a2.62,2.62,0,0,1-2.62-2.62V74.15a2.62,2.62,0,1,1,5.24,0v3.54A2.62,2.62,0,0,1,50.09,80.31Z"/><path class="cls-2" d="M66.55,97.4a14.77,14.77,0,0,1-9.71-3.25,1.75,1.75,0,1,1,2.35-2.59,11.22,11.22,0,0,0,7.36,2.34,11.18,11.18,0,0,0,7.36-2.34,1.75,1.75,0,1,1,2.35,2.59A14.77,14.77,0,0,1,66.55,97.4Z"/><path class="cls-2" d="M66.22,108.73a35.62,35.62,0,0,1-33-22.7,1.75,1.75,0,0,1,3.26-1.26,31.9,31.9,0,0,0,59.56,0A1.75,1.75,0,0,1,99.27,86,35.63,35.63,0,0,1,66.22,108.73Z"/><path class="cls-2" d="M34.81,87.15h-.07c-10.91-.44-14.87-8.76-14.87-14.23,0-5.94,3.73-10.09,9.07-10.09a10,10,0,0,1,2.6.34,1.75,1.75,0,1,1-.9,3.38,6.69,6.69,0,0,0-1.7-.23c-3.85,0-5.58,3.31-5.58,6.6,0,2.85,2.07,10.35,11.52,10.73a1.75,1.75,0,0,1-.07,3.5Z"/><path class="cls-2" d="M97.63,87.12a1.75,1.75,0,0,1-.11-3.49c8.79-.56,11.12-7.25,11.12-10.71,0-3.29-1.73-6.6-5.58-6.6a5.87,5.87,0,0,0-.82.06,1.75,1.75,0,0,1-.44-3.47,9,9,0,0,1,1.26-.08c5.34,0,9.07,4.15,9.07,10.09,0,5.34-3.83,13.53-14.38,14.2Z"/><path class="cls-2" d="M102,66.4a1.75,1.75,0,0,1-1.75-1.76v-.12a33.59,33.59,0,0,0-9.12-23A1.75,1.75,0,0,1,93.7,39.1a37.09,37.09,0,0,1,10.07,25.44v.13A1.74,1.74,0,0,1,102,66.4Z"/><path class="cls-2" d="M31.09,66.61a1.75,1.75,0,0,1-1.75-1.73v-.1c0-.08,0-.16,0-.24A37.26,37.26,0,0,1,66.55,27.33a1.75,1.75,0,1,1,0,3.49A33.76,33.76,0,0,0,32.83,64.54v.3a1.75,1.75,0,0,1-1.73,1.77Z"/><path class="cls-2" d="M34.41,74.63H31.08a1.75,1.75,0,0,1-1.75-1.75v-8a1.75,1.75,0,0,1,3.5,0v6.27h1.58A2.33,2.33,0,0,0,36.89,69V64.57a1.72,1.72,0,0,1,.54-1.26,1.74,1.74,0,0,1,1.3-.48s4.59.2,7.07-2.16a5.4,5.4,0,0,0,1.59-4.15,1.75,1.75,0,0,1,2.81-1.39c3.66,2.82,9.74,4.32,17.57,4.32,13.83,0,18.91-7.23,23-19.7a1.75,1.75,0,0,1,3.32,1.09C90.42,52,85.37,62.94,67.77,62.94c-7.24,0-13-1.17-17.28-3.47a8.36,8.36,0,0,1-2.3,3.75c-2.37,2.25-5.74,2.88-7.81,3V69A5.83,5.83,0,0,1,34.41,74.63Z"/><path class="cls-2" d="M92.43,42a1.73,1.73,0,0,1-1.66-2.29c.58-1.79,1.07-3.22,1.71-5.08s.39-3.48-.73-4c-.89-.42-2.3-.11-3.29,1.56a1.75,1.75,0,1,1-3-1.79c2-3.37,5.42-4,7.77-2.95s4,4.06,2.56,8.31c-.63,1.84-1.11,3.25-1.69,5A1.74,1.74,0,0,1,92.43,42Z"/><path class="cls-2" d="M86.55,31.46a1.66,1.66,0,0,1-.49-.07,1.76,1.76,0,0,1-1.19-2.17,1.8,1.8,0,0,0-.72-2.29c-.68-.33-1.85-.23-2.9,1.19C78.67,31.61,75.09,31.34,71,31c-1.39-.1-2.82-.21-4.4-.21a1.75,1.75,0,0,1,0-3.49c1.72,0,3.28.11,4.66.22,4,.3,5.85.36,7.23-1.51,2.18-2.95,5.22-3.25,7.26-2.24a5.24,5.24,0,0,1,2.53,6.4A1.75,1.75,0,0,1,86.55,31.46Z"/><path class="cls-2" d="M102,74.63H99a6.07,6.07,0,0,1-6.23-5.89V66.27c-2.07-.17-5.43-.8-7.81-3a8.83,8.83,0,0,1-2.69-6.7,1.75,1.75,0,1,1,3.49,0,5.41,5.41,0,0,0,1.6,4.16c2.47,2.35,7,2.15,7.07,2.15a1.76,1.76,0,0,1,1.29.48,1.73,1.73,0,0,1,.54,1.26v4.17A2.59,2.59,0,0,0,99,71.13h1.25V65.89a1.75,1.75,0,0,1,3.5,0v7A1.75,1.75,0,0,1,102,74.63Z"/></g></svg>