<?xml version="1.0" encoding="UTF-8"?>
<svg width="25px" height="22px" viewBox="0 0 25 22" version="1.1" xmlns="http://www.w3.org/2000/svg" xmlns:xlink="http://www.w3.org/1999/xlink">
    <!-- Generator: Sketch 52.2 (67145) - http://www.bohemiancoding.com/sketch -->
    <title>Group 4@2x</title>
    <desc>Created with Sketch.</desc>
    <g id="Page-1" stroke="none" stroke-width="1" fill="none" fill-rule="evenodd">
        <g id="发票详情页" transform="translate(-66.000000, -177.000000)" fill="#000000">
            <g id="Group-4" transform="translate(66.000000, 177.000000)">
                <path d="M22.9919622,22 L1.28389987,22 C0.575945811,22 0,21.3931556 0,20.6472301 L0,10.8731077 C0,10.31473 0.418055306,9.86206897 0.933745362,9.86206897 C1.44943542,9.86206897 1.86749072,10.31473 1.86749072,10.8731077 L1.86749072,19.9779225 L22.4083713,19.9779225 L22.4083713,10.9015748 C22.4083713,10.343197 22.8264267,9.89053603 23.3421167,9.89053603 C23.8578068,9.89053603 24.2758621,10.343197 24.2758621,10.9015748 L24.2758621,20.6471985 C24.2758621,21.3931556 23.6999163,22 22.9919622,22 Z" id="Path"></path>
                <g id="Group-2" transform="translate(3.793103, 0.000000)">
                    <path d="M8.33219909,0.0060347604 C7.7742404,0.0060347604 7.32191911,0.360424588 7.32191911,0.797580408 L7.32191911,13.4586004 C7.32191911,13.8957562 7.7742404,14.250146 8.33219909,14.250146 C8.89015777,14.250146 9.34247906,13.8957562 9.34247906,13.4586004 L9.34247906,0.797580408 C9.34247906,0.360424588 8.8901262,0.0060347604 8.33219909,0.0060347604 Z" id="Path"></path>
                    <path d="M1.65484831,7.70252629 C1.39991047,7.70252629 1.14487792,7.79895541 0.948283755,7.99251241 C0.549538878,8.38512122 0.542624774,9.02864901 0.932876985,9.42980177 L7.61016462,16.2938335 C8.00041683,16.6949863 8.64005034,16.7019421 9.03882679,16.3093333 C9.43760323,15.9167245 9.44451734,15.2731967 9.05423356,14.872044 L2.37694592,8.00801222 C2.1790889,7.80460903 1.91701597,7.70252629 1.65484831,7.70252629 Z" id="Path"></path>
                    <path d="M15.0569383,7.70252629 C14.7947075,7.70252629 14.5327293,7.80457727 14.3348407,8.00801222 L7.65752149,14.872044 C7.26726928,15.2732285 7.27415181,15.9167245 7.67292826,16.3093333 C8.07170471,16.7019421 8.71133822,16.695018 9.10159043,16.2938335 L15.7789096,9.42980177 C16.1691618,9.02861725 16.1622793,8.38512122 15.7635029,7.99251241 C15.5669403,7.79898717 15.3118446,7.70252629 15.0569383,7.70252629 Z" id="Path"></path>
                </g>
            </g>
        </g>
    </g>
</svg>