<?xml version="1.0" standalone="no"?>
<!DOCTYPE svg PUBLIC "-//W3C//DTD SVG 1.1//EN" "http://www.w3.org/Graphics/SVG/1.1/DTD/svg11.dtd">
<svg t="1567670664066" class="icon" viewBox="0 0 1025 1024" version="1.1" xmlns="http://www.w3.org/2000/svg" p-id="3133" xmlns:xlink="http://www.w3.org/1999/xlink" width="200.1953125" height="200">
<defs></defs>
<path d="M960.341161 961.534393c0 17.874947-12.503355 32.453666-28.013328 32.453666l-840.466346 0c-15.37796 0-27.883361-14.578719-27.883361-32.453666l0 0c0-18.00389 12.505402-32.45469 27.883361-32.45469l840.466346 0C947.837806 929.079704 960.341161 943.530504 960.341161 961.534393L960.341161 961.534393z" p-id="3134"></path>
<path d="M855.486132 272.738511c-12.381576 12.615924-32.763743 12.615924-45.265051 0l-135.681561-137.620819c-12.44093-12.609784-12.44093-33.277467 0-45.890321l45.265051-45.959909c12.383622-12.615924 32.764766-12.615924 45.270168 0l135.807433 137.683244c12.378506 12.679372 12.378506 33.340915 0 45.894415L855.486132 272.738511z" p-id="3135"></path>
<path d="M357.659602 777.576047c-12.381576 12.551453-32.76579 12.551453-45.267098 0l-135.868835-137.618772c-12.441954-12.614901-12.441954-33.281561-0.062425-45.892368l407.477561-413.114202c12.439907-12.550429 32.826168-12.550429 45.266074 0l135.743985 137.68222c12.507448 12.680395 12.507448 33.345009 0 45.896461L357.659602 777.576047z" p-id="3136"></path>
<path d="M131.189031 685.849643c-12.43786-12.610807-25.444706-8.616652-28.882156 8.876584l-32.763743 165.892032c-3.44052 17.494259 7.878812 28.90467 25.135653 25.420145l163.564922-33.09224c17.25684-3.487595 21.129217-16.669434 8.753781-29.34983L131.189031 685.849643z" p-id="3137"></path>
</svg>