<svg xmlns="http://www.w3.org/2000/svg" viewBox="0 0 132 132"><defs><style>.cls-1{fill:#ffeae9;}.cls-2{fill:#ff777d;}</style></defs><title>icon_girl_active</title><g id="bg"><circle class="cls-1" cx="66" cy="66" r="64" transform="translate(-20.23 30.28) rotate(-22.5)"/><path class="cls-2" d="M66,4A62,62,0,1,1,4,66,62.07,62.07,0,0,1,66,4m0-4a66,66,0,1,0,66,66A66,66,0,0,0,66,0Z"/></g><g id="icon"><path class="cls-2" d="M44.1,70.53a30.62,30.62,0,0,1-8.9-1.62l-.74-.21a1.53,1.53,0,0,1,.84-3l.75.21a28.18,28.18,0,0,0,8.05,1.5A31.76,31.76,0,0,0,69.49,55.28a1.53,1.53,0,1,1,2.44,1.85A34.83,34.83,0,0,1,44.1,70.53Z"/><path class="cls-2" d="M95.8,68.67A35,35,0,0,1,69.56,57.22a1.53,1.53,0,0,1,2.3-2A31.89,31.89,0,0,0,95.8,65.61l.93,0h.17A1.54,1.54,0,0,1,97,68.65h-.16Z"/><path class="cls-2" d="M66,95.77a12.92,12.92,0,0,1-8.52-2.85,1.53,1.53,0,0,1,2.06-2.27A9.83,9.83,0,0,0,66,92.71a9.83,9.83,0,0,0,6.46-2.06,1.53,1.53,0,0,1,2.06,2.27A12.92,12.92,0,0,1,66,95.77Z"/><path class="cls-2" d="M65.71,105.71a31.24,31.24,0,0,1-29-19.91,1.53,1.53,0,1,1,2.86-1.1,28,28,0,0,0,52.26,0,1.54,1.54,0,0,1,2.87,1.1A31.24,31.24,0,0,1,65.71,105.71Z"/><path class="cls-2" d="M34.88,68.76a1.53,1.53,0,0,1-1.53-1.52v-.09a1.48,1.48,0,0,1,0-.21,32.66,32.66,0,0,1,65.32,0V67a1.54,1.54,0,1,1-3.07,0v-.1a29.59,29.59,0,0,0-59.18,0v.27a1.55,1.55,0,0,1-1.52,1.55Z"/><path class="cls-2" d="M38.15,86.78h-.06C28.51,86.39,25,79.1,25,74.29c0-5.21,3.28-8.85,8-8.85a9,9,0,0,1,2.29.3,1.53,1.53,0,0,1-.79,3,6,6,0,0,0-1.5-.2c-3.38,0-4.89,2.91-4.89,5.79,0,2.51,1.82,9.09,10.11,9.42a1.54,1.54,0,0,1-.06,3.07Z"/><path class="cls-2" d="M93.27,86.76a1.54,1.54,0,0,1-.09-3.07c7.71-.48,9.75-6.36,9.75-9.4,0-2.88-1.51-5.79-4.89-5.79a5.81,5.81,0,0,0-.72,0,1.53,1.53,0,1,1-.39-3A8.38,8.38,0,0,1,98,65.44c4.68,0,8,3.64,8,8.85,0,4.69-3.37,11.88-12.63,12.46Z"/><path class="cls-2" d="M80.16,80.78a2.3,2.3,0,0,1-2.3-2.3V75.37a2.3,2.3,0,1,1,4.6,0v3.11A2.3,2.3,0,0,1,80.16,80.78Z"/><path class="cls-2" d="M51.27,80.78a2.3,2.3,0,0,1-2.3-2.3V75.37a2.3,2.3,0,1,1,4.6,0v3.11A2.3,2.3,0,0,1,51.27,80.78Z"/><path class="cls-2" d="M25.59,63.62A16.5,16.5,0,0,1,12.25,56.8c-1.22-1.84-1.58-3.6-1-5,.84-2,2.72-2.06,4.09-2.1,1.81-.05,3.52-.1,5-3.37l.05-.1C22.86,41,25.63,34.94,34.65,34.94A9.8,9.8,0,0,1,42,37.71a11.31,11.31,0,0,1,2.86,7.46,1.57,1.57,0,0,1-1.57,1.5,1.53,1.53,0,0,1-1.5-1.57,8.25,8.25,0,0,0-2-5.27A6.9,6.9,0,0,0,34.65,38c-7,0-9.09,4.42-11.45,9.55l0,.09c-2.31,5-5.7,5.1-7.73,5.16a4.39,4.39,0,0,0-1.32.14l0,.08c-.1.23,0,1,.72,2.07a13.51,13.51,0,0,0,10.79,5.45c7.62,0,9.32-3.65,9.38-3.81a1.56,1.56,0,0,1,2-.81,1.53,1.53,0,0,1,.84,2C37.72,58.13,35.43,63.62,25.59,63.62Z"/><path class="cls-2" d="M106.41,63.62c-9.84,0-12.13-5.49-12.23-5.72A1.54,1.54,0,0,1,97,56.77c0,.13,1.75,3.78,9.37,3.78A13.51,13.51,0,0,0,117.2,55.1c.71-1.08.82-1.84.72-2.07a.22.22,0,0,0,0-.08,4.27,4.27,0,0,0-1.31-.14c-2-.06-5.42-.15-7.73-5.16l0-.09C106.44,42.43,104.4,38,97.35,38a6.9,6.9,0,0,0-5.12,1.82,8.25,8.25,0,0,0-2,5.27,1.54,1.54,0,0,1-3.07.07A11.31,11.31,0,0,1,90,37.71a9.8,9.8,0,0,1,7.33-2.77c9,0,11.79,6,14.23,11.33l0,.1c1.51,3.27,3.22,3.32,5,3.37,1.37,0,3.25.09,4.09,2.1.58,1.36.22,3.12-1,5A16.5,16.5,0,0,1,106.41,63.62Z"/></g></svg>