<svg xmlns="http://www.w3.org/2000/svg" viewBox="0 0 216 216"><defs><style>.cls-1{fill:#ff777d;}</style></defs><title>icon_girl</title><g id="icon"><path class="cls-1" d="M66.6,114.8c-6.26,0-11.39-1.48-16.82-3l-1.4-.41a2.9,2.9,0,1,1,1.6-5.57l1.41.41c5,1.45,9.77,2.82,15.21,2.82,19.18,0,37.11-8.6,48-23a2.9,2.9,0,1,1,4.63,3.5C107.25,105.33,87.59,114.8,66.6,114.8Z"/><path class="cls-1" d="M164.33,111.3c-19.3,0-37.38-7.89-49.6-21.65a2.9,2.9,0,0,1,4.34-3.85c11.12,12.52,27.61,19.7,45.26,19.7.59,0,1.18,0,1.76,0h.31a2.9,2.9,0,1,1,.18,5.8h-.3C165.63,111.28,165,111.3,164.33,111.3Z"/><path class="cls-1" d="M108,162.53c-6.37,0-12.39-2-16.11-5.4a2.9,2.9,0,0,1,3.9-4.29c2.68,2.44,7.24,3.89,12.21,3.89s9.53-1.45,12.21-3.89a2.9,2.9,0,0,1,3.9,4.29C120.39,160.51,114.37,162.53,108,162.53Z"/><path class="cls-1" d="M107.45,181.31a59.06,59.06,0,0,1-54.8-37.64,2.9,2.9,0,0,1,5.41-2.09,52.9,52.9,0,0,0,98.79,0,2.9,2.9,0,0,1,5.41,2.08A59,59,0,0,1,107.45,181.31Z"/><path class="cls-1" d="M49.18,111.46a2.9,2.9,0,0,1-2.9-2.87v-.17c0-.13,0-.26,0-.39a61.73,61.73,0,0,1,123.46,0v.19a2.9,2.9,0,1,1-5.8,0,1.28,1.28,0,0,1,0-.19,55.94,55.94,0,0,0-111.88,0l0,.5a2.91,2.91,0,0,1-2.87,2.93Z"/><path class="cls-1" d="M55.35,145.52h-.12c-18.1-.73-24.67-14.52-24.67-23.6,0-9.86,6.19-16.74,15.05-16.74a16.83,16.83,0,0,1,4.32.58,2.9,2.9,0,1,1-1.5,5.6,11,11,0,0,0-2.82-.38c-6.39,0-9.25,5.49-9.25,10.94,0,4.74,3.44,17.17,19.11,17.81a2.9,2.9,0,0,1-.12,5.79Z"/><path class="cls-1" d="M159.55,145.48a2.9,2.9,0,0,1-.18-5.79c14.58-.92,18.43-12,18.43-17.77,0-5.45-2.85-10.94-9.24-10.94a10.86,10.86,0,0,0-1.37.09,2.9,2.9,0,1,1-.72-5.75,16.55,16.55,0,0,1,2.09-.14c8.86,0,15,6.88,15,16.74,0,8.86-6.35,22.45-23.86,23.56Z"/><path class="cls-1" d="M134.76,134.18a4.35,4.35,0,0,1-4.35-4.35V124a4.35,4.35,0,0,1,8.7,0v5.87A4.35,4.35,0,0,1,134.76,134.18Z"/><path class="cls-1" d="M80.15,134.18a4.35,4.35,0,0,1-4.35-4.35V124a4.35,4.35,0,1,1,8.7,0v5.87A4.35,4.35,0,0,1,80.15,134.18Z"/><path class="cls-1" d="M31.62,101.74c-11.5,0-21-6.47-25.22-12.89-2.31-3.47-3-6.79-1.9-9.37,1.6-3.79,5.15-3.89,7.74-4,3.43-.1,6.66-.19,9.51-6.39l.08-.17c4.63-10,9.87-21.42,26.91-21.42,5.8,0,10.47,1.76,13.85,5.22C68.12,58.42,68,66.52,68,66.87a3,3,0,0,1-3,2.83,2.9,2.9,0,0,1-2.83-3c0-.11,0-6.09-3.78-10-2.26-2.28-5.51-3.44-9.68-3.44-13.33,0-17.18,8.36-21.64,18l-.08.18C22.66,81,16.24,81.2,12.4,81.31a8.44,8.44,0,0,0-2.48.27.67.67,0,0,0-.07.14c-.18.44,0,1.89,1.38,3.92C14.53,90.6,22.32,96,31.62,96,46,96,49.23,89,49.36,88.74a2.91,2.91,0,0,1,3.78-1.53,2.87,2.87,0,0,1,1.58,3.72C54.55,91.37,50.21,101.74,31.62,101.74Z"/><path class="cls-1" d="M184.38,101.74c-18.59,0-22.93-10.37-23.1-10.81a2.89,2.89,0,0,1,5.38-2.14C166.77,89,170,96,184.38,96c9.3,0,17.09-5.35,20.39-10.31,1.35-2,1.56-3.48,1.38-3.92a.91.91,0,0,0-.08-.15,8.74,8.74,0,0,0-2.47-.26c-3.84-.11-10.26-.29-14.62-9.75l-.08-.18c-4.46-9.68-8.31-18-21.64-18-4.17,0-7.42,1.16-9.68,3.44-3.82,3.88-3.78,9.9-3.78,10a2.9,2.9,0,0,1-5.8.12c0-.35-.12-8.45,5.41-14.11,3.38-3.46,8.05-5.22,13.85-5.22,17,0,22.28,11.38,26.91,21.42l.08.17c2.85,6.2,6.08,6.29,9.51,6.39,2.59.07,6.14.17,7.74,4,1.08,2.58.4,5.9-1.9,9.37C205.33,95.27,195.88,101.74,184.38,101.74Z"/></g></svg>