<svg xmlns="http://www.w3.org/2000/svg" viewBox="0 0 132 132"><defs><style>.cls-1{fill:#f2f2f2;}.cls-2{fill:#dbdbdb;}</style></defs><title>icon_heart_default</title><g id="bg"><circle class="cls-1" cx="66" cy="66" r="64"/><path class="cls-2" d="M66,4A62,62,0,1,1,4,66,62.07,62.07,0,0,1,66,4m0-4a66,66,0,1,0,66,66A66,66,0,0,0,66,0Z"/></g><g id="icon"><path class="cls-2" d="M66,103.34a2.23,2.23,0,0,1-1.59-.66L31.15,69.42A23.89,23.89,0,0,1,64.94,35.63L66,36.69l1.06-1.06a23.93,23.93,0,0,1,33.79,0h0a23.93,23.93,0,0,1,0,33.79L67.59,102.68A2.23,2.23,0,0,1,66,103.34Zm-18-70.2a19.4,19.4,0,0,0-13.71,33.1L66,97.91,97.66,66.24A19.39,19.39,0,0,0,70.24,38.81l-2.65,2.65a2.25,2.25,0,0,1-3.18,0l-2.65-2.65A19.34,19.34,0,0,0,48.05,33.14Z"/></g></svg>