<svg xmlns="http://www.w3.org/2000/svg" viewBox="0 0 132 132"><defs><style>.cls-1{fill:#f2f2f2;}.cls-2{fill:#dbdbdb;}</style></defs><title>icon_mom_default</title><g id="bg"><circle class="cls-1" cx="66" cy="66" r="64"/><path class="cls-2" d="M66,4A62,62,0,1,1,4,66,62.07,62.07,0,0,1,66,4m0-4a66,66,0,1,0,66,66A66,66,0,0,0,66,0Z"/></g><g id="icon"><path class="cls-2" d="M63.55,67.29A4.14,4.14,0,0,1,60,65.14a3.62,3.62,0,0,1,1.33-5c1.58-.89,1.6-3.87,1.16-6.58-5.82,7.67-10.12,12.24-22.91,12.24a37.49,37.49,0,0,1-10.86-2l-.9-.26a1.87,1.87,0,1,1,1-3.6l.91.26A34.34,34.34,0,0,0,39.53,62c11.86,0,15-4.18,21.23-12.5l1.06-1.4a1.87,1.87,0,0,1,1.79-.72,1.84,1.84,0,0,1,1.47,1.23c.4,1.16,3.73,11.37-1.86,14.67a.5.5,0,0,0,.17.19c.11.07.29,0,.53-.09,2.9-1.54,7.48-6.4,6.24-14.85a1.87,1.87,0,0,1,3.25-1.51,38.93,38.93,0,0,0,29.22,12.72l1.14,0H104a1.88,1.88,0,0,1,.06,3.75h-.2l-1.26,0A43.14,43.14,0,0,1,74.05,53a17.11,17.11,0,0,1-8.38,13.76A4.49,4.49,0,0,1,63.55,67.29Z"/><path class="cls-2" d="M66.26,96.59c-4.11,0-8-1.3-10.4-3.48a1.87,1.87,0,1,1,2.52-2.77c1.73,1.57,4.68,2.51,7.88,2.51s6.15-.94,7.88-2.51a1.87,1.87,0,1,1,2.52,2.77C74.26,95.29,70.37,96.59,66.26,96.59Z"/><path class="cls-2" d="M65.9,108.73A38.14,38.14,0,0,1,30.52,84.42,1.88,1.88,0,0,1,34,83.07a34.16,34.16,0,0,0,63.78,0,1.87,1.87,0,1,1,3.5,1.34A38.14,38.14,0,0,1,65.9,108.73Z"/><path class="cls-2" d="M28.28,63.62a1.87,1.87,0,0,1-1.87-1.86v-.11a1.93,1.93,0,0,1,0-.24,39.86,39.86,0,0,1,79.72,0v.13a1.87,1.87,0,0,1-1.87,1.86,1.89,1.89,0,0,1-1.88-1.89s0-.1,0-.13a36.12,36.12,0,0,0-72.23,0v.33a1.87,1.87,0,0,1-1.86,1.88Z"/><path class="cls-2" d="M32.27,85.62h-.08c-11.68-.48-15.93-9.38-15.93-15.25,0-6.36,4-10.8,9.72-10.8a10.7,10.7,0,0,1,2.79.37,1.87,1.87,0,0,1-1,3.62A7.19,7.19,0,0,0,26,63.31c-4.13,0-6,3.55-6,7.06,0,3.06,2.21,11.1,12.33,11.51a1.87,1.87,0,0,1-.07,3.74Z"/><path class="cls-2" d="M99.55,85.59a1.87,1.87,0,0,1-.12-3.74c9.41-.6,11.9-7.77,11.9-11.48,0-3.51-1.84-7.06-6-7.06a6.73,6.73,0,0,0-.88.06,1.87,1.87,0,0,1-.47-3.71,10.43,10.43,0,0,1,1.35-.09c5.72,0,9.71,4.44,9.71,10.8,0,5.73-4.1,14.5-15.4,15.22Z"/><path class="cls-2" d="M83.54,78.29a2.81,2.81,0,0,1-2.81-2.81V71.69a2.81,2.81,0,0,1,5.62,0v3.79A2.81,2.81,0,0,1,83.54,78.29Z"/><path class="cls-2" d="M48.28,78.29a2.81,2.81,0,0,1-2.81-2.81V71.69a2.81,2.81,0,0,1,5.62,0v3.79A2.81,2.81,0,0,1,48.28,78.29Z"/><path class="cls-2" d="M49,104.51c-20,0-32.19-7.81-32.19-12.06a2.48,2.48,0,0,1,1.1-2.09,3.4,3.4,0,0,1,1.88-.5c5.21,0,6.09-7,6.09-7.07a1.87,1.87,0,1,1,3.72.43c-.38,3.25-2.54,9.13-8,10.21,3,2.51,12,7.33,27.4,7.33a1.88,1.88,0,0,1,0,3.75Z"/><path class="cls-2" d="M83.54,104.51a1.88,1.88,0,0,1,0-3.75C99,100.76,108,95.94,111,93.43a8.77,8.77,0,0,1-5.4-3.52,15.57,15.57,0,0,1-2.61-6.69,1.87,1.87,0,1,1,3.72-.44h0a11.78,11.78,0,0,0,1.9,4.9,5,5,0,0,0,4.19,2.18,3.38,3.38,0,0,1,1.88.5,2.49,2.49,0,0,1,1.11,2.09C115.74,96.7,103.51,104.51,83.54,104.51ZM112.83,93.6h0Z"/></g></svg>