<?xml version="1.0" standalone="no"?><!DOCTYPE svg PUBLIC "-//W3C//DTD SVG 1.1//EN" "http://www.w3.org/Graphics/SVG/1.1/DTD/svg11.dtd"><svg t="1558432678821" class="icon" style="" viewBox="0 0 1024 1024" version="1.1" xmlns="http://www.w3.org/2000/svg" p-id="2170" xmlns:xlink="http://www.w3.org/1999/xlink" width="200" height="200"><defs><style type="text/css"></style></defs><path d="M512 279.272727c171.985455 0 328.610909 162.909091 388.421818 232.727273-59.810909 69.818182-216.436364 232.727273-388.421818 232.727273S183.389091 581.818182 123.578182 512c59.810909-69.818182 216.436364-232.727273 388.421818-232.727273m0-69.818182C298.589091 209.454545 117.76 407.970909 56.785455 483.374545a44.916364 44.916364 0 0 0 0 57.25091C117.76 616.029091 298.589091 814.545455 512 814.545455s394.24-198.516364 455.214545-273.92a44.916364 44.916364 0 0 0 0-57.25091C906.24 407.970909 725.410909 209.454545 512 209.454545z" p-id="2171"></path><path d="M512 442.181818a69.818182 69.818182 0 1 1-69.818182 69.818182 69.818182 69.818182 0 0 1 69.818182-69.818182m0-69.818182a139.636364 139.636364 0 1 0 139.636364 139.636364 139.636364 139.636364 0 0 0-139.636364-139.636364z" p-id="2172"></path></svg>