<?xml version="1.0" standalone="no"?><!DOCTYPE svg PUBLIC "-//W3C//DTD SVG 1.1//EN" "http://www.w3.org/Graphics/SVG/1.1/DTD/svg11.dtd"><svg t="1567502783075" class="icon" viewBox="0 0 1024 1024" version="1.1" xmlns="http://www.w3.org/2000/svg" p-id="11174" xmlns:xlink="http://www.w3.org/1999/xlink" width="200" height="200"><defs><style type="text/css"></style></defs><path d="M647.7629999999999 490.9820000000001c12.49900000000001-12.498999999999997 32.755-12.498999999999985 45.253 1.4210854715202004e-14v0c12.498999999999997 12.49900000000001 12.498999999999985 32.755-1.4210854715202004e-14 45.253l-316.7810000000002 316.7809999999999c-12.49900000000001 12.498999999999997-32.755 12.498999999999985-45.253-1.4210854715202004e-14v0c-12.498999999999997-12.49900000000001-12.498999999999985-32.755 1.4210854715202004e-14-45.253l316.7810000000002-316.7809999999999z" p-id="11175"></path><path d="M330.9820000000001 216.23699999999997c-12.498999999999997-12.49900000000001-12.498999999999985-32.755 1.4210854715202004e-14-45.253v0c12.49900000000001-12.498999999999997 32.755-12.498999999999985 45.253 1.4210854715202004e-14l316.7809999999999 316.7810000000002c12.498999999999997 12.49900000000001 12.498999999999985 32.755-1.4210854715202004e-14 45.253v0c-12.49900000000001 12.498999999999997-32.755 12.498999999999985-45.253-1.4210854715202004e-14l-316.7809999999999-316.7810000000002z" p-id="11176"></path></svg>