<?xml version="1.0" encoding="utf-8"?>
<!-- Generator: Adobe Illustrator 21.0.0, SVG Export Plug-In . SVG Version: 6.00 Build 0)  -->
<svg version="1.1" id="图层_1" xmlns="http://www.w3.org/2000/svg" xmlns:xlink="http://www.w3.org/1999/xlink" x="0px" y="0px"
	 viewBox="0 0 1024 1024" style="enable-background:new 0 0 1024 1024;" xml:space="preserve">
<style type="text/css">
	.st0{fill:#DE6A1C;}
	.st1{fill-rule:evenodd;clip-rule:evenodd;fill:#DE6A1C;}
</style>
<path class="st0" d="M513.3,964.8c-54.9,0-113.6-14.9-113.6-56.8c0-15.7,12.7-28.4,28.4-28.4c12.3,0,22.7,7.8,26.7,18.7
	c7.8,4,28.9,9.7,58.5,9.7c29.5,0,50.6-5.7,58.5-9.7c4-10.9,14.4-18.7,26.7-18.7c15.7,0,28.4,12.7,28.4,28.4
	C626.8,949.9,568.2,964.8,513.3,964.8z"/>
<path class="st1" d="M901.5,721.6l-76.6-110.5l-0.2-203.4c-0.1-131.4-75-242.9-201.6-285.3C603,83.6,560.3,56.5,510.5,56.5
	c-49.8,0.1-92.4,27.2-112.4,66.1C271.7,165.3,201.4,277,201.5,408.4l0.2,202.7l-76.4,110.5c-8.9,12.9-5.7,30.6,7.2,39.5
	c4.7,3.3,10.4,5,16.1,5h729.5c15.7,0,28.4-12.7,28.4-28.4C906.6,732,904.8,726.3,901.5,721.6z M203.8,708.4l55.7-80.6l-0.3-220.5
	c-0.1-111.8,58.9-198.5,158-231.9l21.8-7.3l10.5-20.5c11-21.4,35.4-35.3,62-35.3c0,0,0.1,0,0.1,0c26.6,0,51,13.8,62.1,35.2
	l10.6,20.4l21.8,7.3c100.3,33.6,162.7,122.3,162.8,231.6l0.2,221.1l55.8,80.5H203.8z"/>
</svg>
