<?xml version="1.0" encoding="UTF-8"?>
<svg width="27px" height="22px" viewBox="0 0 27 22" version="1.1" xmlns="http://www.w3.org/2000/svg" xmlns:xlink="http://www.w3.org/1999/xlink">
    <!-- Generator: Sketch 52.2 (67145) - http://www.bohemiancoding.com/sketch -->
    <title>Group 3@2x</title>
    <desc>Created with Sketch.</desc>
    <g id="Page-1" stroke="none" stroke-width="1" fill="none" fill-rule="evenodd">
        <g id="发票详情页" transform="translate(-467.000000, -177.000000)" fill="#000000">
            <g id="Group-3" transform="translate(467.000000, 177.000000)">
                <g id="发送给好友-01" transform="translate(4.400000, 0.000000)" fill-rule="nonzero">
                    <path d="M21.9951337,6.36725947 L13.8056011,12.9677611 L13.8056011,8.17300503 C7.62743911,6.36876426 1.18251704,14.6987688 1.18251704,14.6987688 C3.28992119,4.00574555 13.8856291,5.03201095 13.8856291,5.03201095 L13.8856291,0 L21.9951337,6.36725947 Z" id="Shape"></path>
                </g>
                <path d="M25.0037589,22 L1.39624111,22 C0.626341069,22 0,21.3400567 0,20.5288628 L0,14.2995047 C0,13.6922688 0.454635145,13.2 1.01544808,13.2 C1.57626102,13.2 2.03089616,13.6922688 2.03089616,14.2995047 L2.03089616,19.8009907 L24.3691038,19.8009907 L24.3691038,14.3304626 C24.3691038,13.7232268 24.823739,13.2309579 25.3845519,13.2309579 C25.9453649,13.2309579 26.4,13.7232268 26.4,14.3304626 L26.4,20.5288284 C26.4,21.3400567 25.7736589,22 25.0037589,22 Z" id="Path-Copy"></path>
            </g>
        </g>
    </g>
</svg>