<?xml version="1.0" standalone="no"?><!DOCTYPE svg PUBLIC "-//W3C//DTD SVG 1.1//EN" "http://www.w3.org/Graphics/SVG/1.1/DTD/svg11.dtd"><svg t="1558349884736" class="icon" style="" viewBox="0 0 1024 1024" version="1.1" xmlns="http://www.w3.org/2000/svg" p-id="596" xmlns:xlink="http://www.w3.org/1999/xlink" width="200" height="200"><defs><style type="text/css"></style></defs><path d="M508.248559 953.897386c-60.0824 0-118.381178-11.772115-173.275415-34.991956-53.009308-22.420639-100.612489-54.513568-141.484361-95.385441-40.872896-40.872896-72.964802-88.475054-95.386464-141.485384-23.218818-54.894238-34.990932-113.193015-34.990933-173.275416s11.773138-118.381178 34.990933-173.275415c22.421662-53.009308 54.513568-100.612489 95.386464-141.484362 40.871873-40.872896 88.475054-72.964802 141.484361-95.386464 54.895261-23.218818 113.194038-34.990932 173.275415-34.990932 60.0824 0 118.380154 11.773138 173.275416 34.990932 53.009308 22.421662 100.611465 54.513568 141.484361 95.386464 40.871873 40.871873 72.964802 88.475054 95.385441 141.484362 23.218818 54.895261 34.991955 113.194038 34.991955 173.275415s-11.773138 118.381178-34.991955 173.275416c-22.420639 53.010331-54.513568 100.612489-95.385441 141.485384-40.872896 40.871873-88.475054 72.964802-141.484361 95.385441-54.895261 23.218818-113.193015 34.991955-173.275416 34.991956z m0-839.844794c-217.641879 0-394.706597 177.064718-394.706596 394.706597 0 217.642902 177.064718 394.706597 394.706596 394.706597s394.705574-177.063695 394.705574-394.706597c0.001023-217.641879-177.063695-394.706597-394.705574-394.706597z" fill="" p-id="597"></path><path d="M448.493617 738.906893a25.485441 25.485441 0 0 1-16.624632-6.148024L250.937193 577.889663c-10.733459-9.188266-11.987009-25.337061-2.799766-36.07052 9.188266-10.732435 25.337061-11.988032 36.071543-2.798743l161.571863 138.297786L718.296483 361.414353c9.228175-10.69969 25.384134-11.890818 36.081777-2.660596 10.697643 9.229199 11.888771 25.38311 2.660596 36.081777L467.87606 730.034828c-5.058203 5.863545-12.199856 8.872065-19.382443 8.872065z" fill="" p-id="598"></path></svg>