<?xml version="1.0" standalone="no"?><!DOCTYPE svg PUBLIC "-//W3C//DTD SVG 1.1//EN" "http://www.w3.org/Graphics/SVG/1.1/DTD/svg11.dtd"><svg t="1567496245519" class="icon" viewBox="0 0 1024 1024" version="1.1" xmlns="http://www.w3.org/2000/svg" p-id="9214" xmlns:xlink="http://www.w3.org/1999/xlink" width="200" height="200"><defs><style type="text/css"></style></defs><path d="M511.99693 9.749038c-277.387611 0-502.247892 224.862327-502.247892 502.254032 0 277.387611 224.860281 502.247892 502.247892 502.247892s502.254032-224.860281 502.254032-502.247892C1014.250962 234.616482 789.384541 9.749038 511.99693 9.749038L511.99693 9.749038zM682.843016 702.760648l-17.755386 17.760502c-9.80839 9.80225-25.708522 9.80225-35.515888 0L466.712561 557.654806c-5.632277-5.625114-4.937452-16.939811-4.937452-28.077475L461.775108 210.648604c0-13.868869 11.243065-25.110911 25.110911-25.110911l25.110911 0c13.868869 0 25.110911 11.243065 25.110911 25.110911l0 310.86098 145.735176 145.735176C692.651406 677.052127 692.651406 692.953282 682.843016 702.760648L682.843016 702.760648zM682.843016 702.760648" p-id="9215"></path></svg>