<svg viewBox="0 0 500 500" version="1.1" id="svg_null"><g id="root" stroke="none" stroke-width="1" fill="none" fill-rule="evenodd"><rect id="background" fill="#FFF" x="0" y="0" width="500" height="500"></rect><g id="Group" transform="translate(40.000000, 349.000000)"><rect id="Rectangle-80" x="0" y="0" width="420" height="40"></rect><text id="headerText.primary" font-family="Unica One" font-size="32.89050482450007" font-weight="400" line-spacing="40" letter-spacing="4.698643546357153" fill="#e04b5a" data-text-alignment="C" font-style="normal"><tspan x="0.0078125" y="30.5">Elephant Design Mobile</tspan></text></g><path d="M351.669 306.254c-11.341 0 -20.564 -9.213 -20.564 -20.537c0 -11.322 9.223 -20.537 20.564 -20.537c11.34 0 20.569 9.215 20.569 20.537c0 11.324 -9.228 20.537 -20.57 20.537zm-101.667 0c-51.782 0 -93.914 -42.058 -93.914 -93.758c0 -16.28 4.22 -31.581 11.563 -44.937l54.845 0c-15.14 9.272 -25.27 25.944 -25.27 44.937c0 29.051 23.676 52.684 52.776 52.684l82.25 0c-5.473 5.161 -8.91 12.449 -8.91 20.537c0 8.09 3.437 15.378 8.91 20.537l-82.25 0zm-97.792 0c-11.339 0 -20.57 -9.213 -20.57 -20.537c0 -11.322 9.231 -20.537 20.57 -20.537l10.919 0c11.163 18.28 27.954 32.769 47.948 41.074l-58.867 0zm-24.448 -166.981c0 -11.32 9.228 -20.527 20.567 -20.527c11.338 0 20.566 9.208 20.566 20.527c0 11.324 -9.228 20.537 -20.566 20.537c-11.339 0 -20.567 -9.213 -20.567 -20.537zm167.252 73.223c0 24.78 -20.19 44.938 -45.012 44.938c-24.822 0 -45.011 -20.158 -45.011 -44.938c0 -24.78 20.19 -44.937 45.011 -44.937c24.823 0 45.012 20.157 45.012 44.937zm-55.523 -93.75l6.63 0l3.881 0l3.884 0.098c49.987 2.042 90.026 43.26 90.026 93.652c0 15.648 -3.996 31.138 -11.573 44.938l-54.812 0c15.137 -9.272 25.252 -25.944 25.252 -44.938c0 -29.053 -23.676 -52.686 -52.777 -52.686l-3.88 0l-6.631 0l-71.742 0c5.472 -5.161 8.908 -12.446 8.908 -20.537c0 -8.085 -3.436 -15.368 -8.908 -20.527l71.742 0zm108.302 0c11.34 0 20.571 9.208 20.571 20.527c0 11.324 -9.23 20.537 -20.571 20.537l-10.924 0c-11.164 -18.276 -27.952 -32.761 -47.941 -41.064l58.865 0zm32.207 166.971c0 -15.593 -12.712 -28.283 -28.329 -28.283l-10.586 0c6.943 -13.977 10.586 -29.383 10.586 -44.938c0 -16.13 -3.806 -31.382 -10.541 -44.937l6.663 0c15.619 0 28.331 -12.69 28.331 -28.286c0 -15.59 -12.712 -28.273 -28.331 -28.273l-97.79 0l-3.882 0l-97.792 0c-15.622 0 -28.329 12.683 -28.329 28.273c0 15.595 12.707 28.286 28.329 28.286l10.566 0c-6.74 13.558 -10.566 28.801 -10.566 44.937c0 16.129 3.803 31.38 10.539 44.938l-6.658 0c-15.622 0 -28.329 12.69 -28.329 28.283c0 15.598 12.707 28.283 28.329 28.283l97.792 0l3.882 0l97.787 0c15.617 -0.002 28.329 -12.685 28.329 -28.283z" id="shape.primary" fill="#e04b5a"></path></g></svg>